<svg xmlns="http://www.w3.org/2000/svg" xmlns:xlink="http://www.w3.org/1999/xlink" width="500" zoomAndPan="magnify" viewBox="0 0 375 374.999991" height="500" preserveAspectRatio="xMidYMid meet" version="1.2"><defs/><g id="15bf16dc3d"><g style="fill:#ffffff;fill-opacity:1;"><g transform="translate(73.5003, 180.069915)"><path style="stroke:none" d="M 48.8125 1.953125 C 43.269531 1.953125 37.90625 1.332031 32.71875 0.09375 C 27.53125 -1.144531 22.84375 -3.179688 18.65625 -6.015625 C 14.46875 -8.847656 11.109375 -12.441406 8.578125 -16.796875 C 6.046875 -21.160156 4.71875 -26.46875 4.59375 -32.71875 L 22.8125 -32.71875 C 22.8125 -32.25 22.925781 -31.332031 23.15625 -29.96875 C 23.394531 -28.613281 24.015625 -27.050781 25.015625 -25.28125 C 26.023438 -23.519531 27.5 -21.8125 29.4375 -20.15625 C 31.382812 -18.507812 34.039062 -17.125 37.40625 -16 C 40.769531 -14.882812 44.984375 -14.328125 50.046875 -14.328125 C 53.585938 -14.328125 56.625 -14.679688 59.15625 -15.390625 C 61.695312 -16.097656 63.820312 -17.039062 65.53125 -18.21875 C 67.238281 -19.394531 68.503906 -20.71875 69.328125 -22.1875 C 70.148438 -23.664062 70.5625 -25.113281 70.5625 -26.53125 C 70.5625 -29.832031 69.410156 -32.453125 67.109375 -34.390625 C 64.816406 -36.335938 61.753906 -37.929688 57.921875 -39.171875 C 54.085938 -40.410156 49.898438 -41.53125 45.359375 -42.53125 C 40.828125 -43.53125 36.289062 -44.738281 31.75 -46.15625 C 27.207031 -47.570312 23.050781 -49.429688 19.28125 -51.734375 C 15.507812 -54.035156 12.585938 -57.007812 10.515625 -60.65625 C 8.453125 -64.3125 7.539062 -68.972656 7.78125 -74.640625 C 8.25 -80.179688 10.191406 -84.953125 13.609375 -88.953125 C 17.035156 -92.960938 21.8125 -96.03125 27.9375 -98.15625 C 34.070312 -100.28125 41.207031 -101.34375 49.34375 -101.34375 C 56.414062 -101.34375 62.988281 -100.070312 69.0625 -97.53125 C 75.132812 -95 80.023438 -91.226562 83.734375 -86.21875 C 87.453125 -81.207031 89.3125 -74.8125 89.3125 -67.03125 L 71.8125 -67.03125 C 71.8125 -70.6875 70.984375 -73.660156 69.328125 -75.953125 C 67.679688 -78.253906 65.585938 -80.023438 63.046875 -81.265625 C 60.515625 -82.503906 57.832031 -83.328125 55 -83.734375 C 52.175781 -84.148438 49.640625 -84.359375 47.390625 -84.359375 C 41.503906 -84.359375 36.644531 -83.382812 32.8125 -81.4375 C 28.976562 -79.5 27.0625 -76.523438 27.0625 -72.515625 C 26.9375 -69.097656 28.050781 -66.414062 30.40625 -64.46875 C 32.769531 -62.519531 35.894531 -60.957031 39.78125 -59.78125 C 43.675781 -58.601562 47.921875 -57.507812 52.515625 -56.5 C 57.117188 -55.5 61.71875 -54.347656 66.3125 -53.046875 C 70.914062 -51.753906 75.070312 -49.988281 78.78125 -47.75 C 82.5 -45.507812 85.445312 -42.5625 87.625 -38.90625 C 89.8125 -35.25 90.726562 -30.472656 90.375 -24.578125 C 90.132812 -19.035156 88.1875 -14.289062 84.53125 -10.34375 C 80.882812 -6.394531 76.023438 -3.359375 69.953125 -1.234375 C 63.878906 0.890625 56.832031 1.953125 48.8125 1.953125 Z M 48.8125 1.953125 "/></g></g><g style="fill:#ffffff;fill-opacity:1;"><g transform="translate(171.652703, 180.069915)"><path style="stroke:none" d="M 10.265625 0 L 10.265625 -99.578125 L 41.734375 -99.578125 L 65.078125 -7.78125 L 65.4375 -7.78125 L 88.609375 -99.578125 L 119.90625 -99.578125 L 119.90625 0 L 101.15625 0 L 102.40625 -91.4375 L 102.21875 -91.4375 L 78.34375 0 L 51.8125 0 L 28.296875 -91.4375 L 27.9375 -91.4375 L 29 0 Z M 10.265625 0 "/></g></g><g style="fill:#ffffff;fill-opacity:1;"><g transform="translate(85.091593, 296.506733)"><path style="stroke:none" d="M 53.234375 5.085938 C 43.390625 5.085938 34.460938 3.050781 26.441406 -1.023438 C 18.316406 -5.148438 11.878906 -11.265625 7.132812 -19.371094 C 2.40625 -27.433594 0.0429688 -37.425781 0.0429688 -49.34375 C 0.167969 -61.015625 2.550781 -70.988281 7.1875 -79.261719 C 11.871094 -87.613281 18.300781 -93.945312 26.484375 -98.261719 C 34.574219 -102.523438 43.667969 -104.65625 53.765625 -104.65625 C 63.492188 -104.65625 71.835938 -102.886719 78.792969 -99.34375 C 85.769531 -95.789062 91.390625 -90.957031 95.660156 -84.84375 C 99.894531 -78.777344 102.644531 -71.957031 103.902344 -64.390625 L 104.546875 -60.53125 L 79.230469 -60.53125 L 78.789062 -63.324219 C 78.074219 -67.804688 76.46875 -71.292969 73.96875 -73.792969 C 71.351562 -76.410156 68.296875 -78.257812 64.8125 -79.335938 C 61.121094 -80.476562 57.441406 -81.046875 53.765625 -81.046875 C 44.21875 -81.046875 36.976562 -78.441406 32.027344 -73.234375 C 27.035156 -67.980469 24.539062 -60.429688 24.539062 -50.582031 C 24.539062 -39.988281 27 -31.941406 31.917969 -26.441406 C 36.742188 -21.046875 43.90625 -18.347656 53.410156 -18.347656 C 57.417969 -18.347656 61.320312 -18.972656 65.109375 -20.21875 C 68.703125 -21.398438 71.78125 -23.347656 74.34375 -26.0625 C 76.820312 -28.6875 78.417969 -32.316406 79.140625 -36.941406 L 79.574219 -39.75 L 105.132812 -39.75 L 104.425781 -35.84375 C 103.046875 -28.199219 100.285156 -21.269531 96.140625 -15.050781 C 91.921875 -8.722656 86.214844 -3.777344 79.023438 -0.210938 C 71.898438 3.320312 63.300781 5.085938 53.234375 5.085938 Z M 53.234375 -1.546875 C 62.265625 -1.546875 69.882812 -3.082031 76.078125 -6.15625 C 82.210938 -9.195312 87.058594 -13.386719 90.621094 -18.730469 C 94.257812 -24.183594 96.683594 -30.28125 97.898438 -37.019531 L 101.164062 -36.433594 L 101.164062 -33.117188 L 82.417969 -33.117188 L 82.417969 -36.433594 L 85.691406 -35.921875 C 84.761719 -29.9375 82.585938 -25.136719 79.167969 -21.511719 C 75.835938 -17.980469 71.839844 -15.449219 67.179688 -13.917969 C 62.71875 -12.449219 58.128906 -11.714844 53.410156 -11.714844 C 41.929688 -11.714844 33.117188 -15.152344 26.976562 -22.019531 C 20.929688 -28.78125 17.90625 -38.300781 17.90625 -50.582031 C 17.90625 -62.195312 21.011719 -71.265625 27.21875 -77.804688 C 33.472656 -84.386719 42.320312 -87.679688 53.765625 -87.679688 C 58.109375 -87.679688 62.441406 -87.007812 66.769531 -85.671875 C 71.300781 -84.273438 75.265625 -81.875 78.660156 -78.484375 C 82.171875 -74.96875 84.398438 -70.261719 85.335938 -64.367188 L 82.0625 -63.847656 L 82.0625 -67.164062 L 100.632812 -67.164062 L 100.632812 -63.847656 L 97.363281 -63.300781 C 96.265625 -69.882812 93.882812 -75.796875 90.21875 -81.046875 C 86.585938 -86.253906 81.773438 -90.382812 75.78125 -93.433594 C 69.769531 -96.492188 62.429688 -98.023438 53.765625 -98.023438 C 44.761719 -98.023438 36.699219 -96.148438 29.578125 -92.394531 C 22.550781 -88.6875 17.015625 -83.230469 12.972656 -76.019531 C 8.886719 -68.730469 6.789062 -59.839844 6.675781 -49.34375 C 6.675781 -38.625 8.734375 -29.75 12.855469 -22.722656 C 16.949219 -15.738281 22.476562 -10.472656 29.445312 -6.9375 C 36.519531 -3.34375 44.449219 -1.546875 53.234375 -1.546875 Z M 53.234375 -1.546875 "/></g></g><g style="fill:#ffffff;fill-opacity:1;"><g transform="translate(191.555996, 296.506733)"><path style="stroke:none" d="M 77.289062 -102.886719 L 101.683594 -102.886719 L 66.597656 3.316406 L 31.738281 3.316406 L -3.351562 -102.886719 L 23.324219 -102.886719 L 52.160156 -8.574219 L 48.988281 -7.605469 L 45.820312 -8.582031 L 74.835938 -102.886719 Z M 77.289062 -96.253906 L 77.289062 -99.570312 L 80.457031 -98.597656 L 48.980469 3.703125 L 17.699219 -98.601562 L 20.871094 -99.570312 L 20.871094 -96.253906 L 1.238281 -96.253906 L 1.238281 -99.570312 L 4.386719 -100.613281 L 37.28125 -1.039062 L 34.132812 0 L 34.132812 -3.316406 L 64.199219 -3.316406 L 64.199219 0 L 61.050781 -1.039062 L 93.945312 -100.613281 L 97.09375 -99.570312 L 97.09375 -96.253906 Z M 77.289062 -96.253906 "/></g></g></g></svg>